<?xml version="1.0" standalone="no"?>
<!DOCTYPE svg PUBLIC "-//W3C//DTD SVG 1.1//EN" "http://www.w3.org/Graphics/SVG/1.1/DTD/svg11.dtd">
<svg width="150" height="150" version="1.1" xmlns="http://www.w3.org/2000/svg" xmlns:xlink="http://www.w3.org/1999/xlink"><rect x="0" y="0" width="150" height="150" style="stroke-width:0;fill:linen;stroke:black;"/><line x1="75" y1="103" x2="6" y2="101" style="stroke:black;stroke-width:4;"/><line x1="75" y1="103" x2="100" y2="140" style="stroke:black;stroke-width:4;"/><line x1="75" y1="103" x2="144" y2="47" style="stroke:black;stroke-width:4;"/><line x1="75" y1="103" x2="50" y2="8" style="stroke:black;stroke-width:4;"/><line x1="6" y1="101" x2="100" y2="140" style="stroke:black;stroke-width:2.0;"/><line x1="100" y1="140" x2="144" y2="47" style="stroke:black;stroke-width:2.0;"/><line x1="144" y1="47" x2="50" y2="8" style="stroke:black;stroke-width:2.0;"/><line x1="50" y1="8" x2="6" y2="101" style="stroke:black;stroke-width:2.0;"/><line x1="75" y1="45" x2="6" y2="101" style="stroke:black;stroke-width:1.0;"/><line x1="75" y1="45" x2="100" y2="140" style="stroke:black;stroke-width:1.0;"/><line x1="75" y1="45" x2="144" y2="47" style="stroke:black;stroke-width:1.0;"/><line x1="75" y1="45" x2="50" y2="8" style="stroke:black;stroke-width:1.0;"/><circle cx="75" cy="103" r="5" style="fill:black;stroke:black;"/><circle cx="75" cy="103" r="3.75" style="fill:black;stroke:black;"/><circle cx="6" cy="101" r="3.75" style="fill:black;stroke:black;"/><circle cx="100" cy="140" r="3.75" style="fill:black;stroke:black;"/><circle cx="144" cy="47" r="3.75" style="fill:black;stroke:black;"/><circle cx="50" cy="8" r="3.75" style="fill:black;stroke:black;"/><circle cx="75" cy="45" r="3.125" style="fill:black;stroke:black;"/></svg>